<svg xmlns="http://www.w3.org/2000/svg" viewBox="0 0 53.14 68.88"><defs><style>.cls-1{fill:#f4f4f4;}</style></defs><g id="Layer_2" data-name="Layer 2"><g id="Layer_1-2" data-name="Layer 1"><path class="cls-1" d="M48.58,27q-5.09-5.91-14.3-5.91-9,0-14.6,5.8-6.21,6.63-6.21,18,0,6.94,3.21,11.39H0V68.88H34.08q8.7,0,13.78-5.18t5.28-14.08V40.29Q53.14,32.12,48.58,27ZM39.31,37.75c-3.94,1-5.47,2.51-5.77,6h5.75V55.6H27.45c0-.75,0-1.46,0-2.17,0-.52,0-1,0-1.57,0-3-.06-6,.08-9a11.69,11.69,0,0,1,6.24-9.57,10,10,0,0,1,5.55-1.18Z"/><path class="cls-1" d="M34.18,13.67a6.72,6.72,0,0,1-5-1.86,6.89,6.89,0,0,1-1.86-5.08,6.61,6.61,0,0,1,1.86-4.87,6.72,6.72,0,0,1,5-1.86A6.69,6.69,0,0,1,39.1,1.81a6.65,6.65,0,0,1,1.82,4.92Q40.92,13.68,34.18,13.67Z"/></g></g></svg>