<svg xmlns="http://www.w3.org/2000/svg" viewBox="0 0 46.16 41.92"><defs><style>.cls-1{fill:#fff;}</style></defs><g id="Layer_2" data-name="Layer 2"><g id="Layer_1-2" data-name="Layer 1"><path class="cls-1" d="M6.21,6.2c0-.63,0-1.22,0-1.8A4.49,4.49,0,0,1,8.69.46,3.08,3.08,0,0,1,10.26,0c10.49,0,21,0,31.45,0A4.57,4.57,0,0,1,46,3.3a2.89,2.89,0,0,1,.08.72q.06,7.64.09,15.27c0,1.37-.1,2.74-.07,4.11a4.4,4.4,0,0,1-3.52,4,19.8,19.8,0,0,1-2.19.14c-.53,0-.46-.07-.46.48a10.73,10.73,0,0,1-.21,2.53,4.62,4.62,0,0,1-4.05,3.19c-6.9,0-13.8,0-20.71,0a1,1,0,0,0-.78.32L6.69,41.63a1.41,1.41,0,0,0-.18.29l-.12-.07v-8H5.66c-.71,0-1.43,0-2.13-.12a4.35,4.35,0,0,1-3.51-4C0,23.24,0,16.8,0,10.35A4.53,4.53,0,0,1,3.84,6.27c.65-.07,1.31,0,2-.07ZM9.29,30.89v4l.12.1a1.06,1.06,0,0,1,.15-.28c1.16-1.18,2.33-2.34,3.49-3.51a.76.76,0,0,1,.6-.26H29.3c2.09,0,4.19,0,6.28-.07a1.34,1.34,0,0,0,1.35-1.34c0-.49.06-1,.06-1.47q0-6.72,0-13.43c0-1.34,0-2.68-.07-4a1.34,1.34,0,0,0-1.42-1.41c-.66,0-1.32,0-2,0l-23.06,0c-2,0-4,0-6,.07a1.39,1.39,0,0,0-1.53,1.56c0,3.06-.06,6.13-.06,9.2s0,6.24.06,9.37a1.42,1.42,0,0,0,1.53,1.58c1.18,0,2.35,0,3.53,0ZM9.14,6.2h.39l26.3.08a3.11,3.11,0,0,1,1.2.25,4.39,4.39,0,0,1,2.84,4.19c0,4.51,0,9,.05,13.54v.41H41.4a3.93,3.93,0,0,0,.6-.07,1.38,1.38,0,0,0,1.19-1.33c0-.21,0-.43,0-.64q0-7.66,0-15.33c0-1,0-2-.07-3a1.35,1.35,0,0,0-1.39-1.34c-.51,0-1,0-1.53,0l-23.64,0c-2,0-3.93,0-5.9.06A1.4,1.4,0,0,0,9.15,4.36C9.1,5,9.14,5.56,9.14,6.2Z"/><path class="cls-1" d="M20,21.38H7.51a1.36,1.36,0,0,1-1.29-.95,1.4,1.4,0,0,1,1.25-1.85c2.09,0,4.18,0,6.27,0l16.75,0h2.05a1.43,1.43,0,0,1,1.38,1.19A1.59,1.59,0,0,1,33,21.34a.76.76,0,0,1-.34,0Z"/><path class="cls-1" d="M17,24.76h9.17l.37,0a1.29,1.29,0,0,1,1.25,1.07A1.4,1.4,0,0,1,27,27.37a2.26,2.26,0,0,1-.9.13l-6.65.06-11.92,0a1.41,1.41,0,0,1-1.37-1,1.48,1.48,0,0,1,.56-1.67,1.4,1.4,0,0,1,.83-.25H17Z"/><path class="cls-1" d="M14,15.24H8.29a10.2,10.2,0,0,1-1.24-.1,1.2,1.2,0,0,1-1-.93A1.39,1.39,0,0,1,7.51,12.4c3.24,0,6.48,0,9.72,0,1,0,2.06.09,3.09,0a1.38,1.38,0,0,1,1.11,2,1.28,1.28,0,0,1-1.22.7H14Z"/></g></g></svg>