<svg xmlns="http://www.w3.org/2000/svg" viewBox="0 0 39.91 39.89"><defs><style>.cls-1{fill:#fff;}</style></defs><g id="Layer_2" data-name="Layer 2"><g id="Layer_1-2" data-name="Layer 1"><path class="cls-1" d="M31.57,39.89c-.63-.1-1.27-.15-1.88-.31a8.12,8.12,0,0,1-5.94-9.41.35.35,0,0,0-.17-.45l-4.78-3a10.34,10.34,0,0,1-9,4.08A10.15,10.15,0,0,1,2.5,27.14,10.47,10.47,0,1,1,18.83,14a2,2,0,0,0,.29-.15c1.54-1,3.08-1.93,4.63-2.88a.39.39,0,0,0,.19-.53A8.15,8.15,0,1,1,39.83,7.08a2.63,2.63,0,0,0,.08.3V8.94a1.25,1.25,0,0,0-.07.26A8,8,0,0,1,34,16a14.26,14.26,0,0,1-1.63.34v7.21l.14,0a8.12,8.12,0,0,1,7.2,6.35c.08.33.13.66.2,1v1.56a1.11,1.11,0,0,0-.07.26,8,8,0,0,1-5.53,6.67,15,15,0,0,1-2.35.47Zm-.42-16.34V16.33c-3.72-.82-4.31-1.21-6.68-4.42L19.5,15a10.59,10.59,0,0,1,0,10.74l4.68,2.93A8.3,8.3,0,0,1,31.15,23.55ZM15.9,27.87a9.24,9.24,0,0,0,3.45-10.29,9.31,9.31,0,0,0-18.16,2C.91,22.63,3,27.12,5,27.8a7.33,7.33,0,0,1,0-.94.91.91,0,0,0-.33-.78,8,8,0,0,1-2-8.23,7.36,7.36,0,0,1,1.69-2.91.58.58,0,0,1,.86-.09.6.6,0,0,1,0,.84l-.25.3a7,7,0,0,0,.19,9,2.27,2.27,0,0,0,.22.22c.3-.26.57-.51.85-.74l1.92-1.6a.61.61,0,0,0,0-1A3.76,3.76,0,0,1,6.6,18.8c0-1.79,0-3.59,0-5.38a.82.82,0,0,1,1.16-.83,5.79,5.79,0,0,0,2.33.33c.77,0,1.53,0,2.3,0a1.9,1.9,0,0,1,2,2c0,1.28,0,2.57,0,3.86a3.76,3.76,0,0,1-1.63,3.12.61.61,0,0,0,0,1l2.79,2.33a6.59,6.59,0,0,0,1.81-3.48,17.54,17.54,0,0,0,.13-1.78.6.6,0,0,1,.54-.61.58.58,0,0,1,.61.54,5.47,5.47,0,0,1,0,.7,8.18,8.18,0,0,1-2.47,5.64.81.81,0,0,0-.23.41C15.88,27,15.9,27.42,15.9,27.87Zm10.88,8.68a9.78,9.78,0,0,1,.31-1,.47.47,0,0,0-.07-.52,5.81,5.81,0,0,1,8.22-8,5.66,5.66,0,0,1,2.11,3.09.58.58,0,0,1-.36.76.59.59,0,0,1-.74-.4c0-.12-.07-.25-.12-.37-.16-.34-.33-.67-.49-1A4.19,4.19,0,0,1,34,32.89c.33.22.63.4.9.62s.51.46.83.75c.19-.51.38-1,.54-1.43s.41-.65.75-.56a.6.6,0,0,1,.38.87c-.27.67-.61,1.31-.91,2,0,.1-.13.22-.11.3.11.38.25.75.38,1.13a6.92,6.92,0,0,0,0-9.73,7,7,0,1,0-10,9.74Zm-18-12.66L6.61,25.73a1.24,1.24,0,0,0-.42,1c0,.53,0,1.06,0,1.59a.58.58,0,0,0,.24.41,9.12,9.12,0,0,0,8,0,.49.49,0,0,0,.24-.37,12.78,12.78,0,0,0,0-1.75,1.42,1.42,0,0,0-.35-.83c-.72-.66-1.49-1.27-2.25-1.9A2.08,2.08,0,0,1,8.82,23.89ZM36.74,13A7,7,0,0,0,30.89,1.23a7,7,0,0,0-6,5.56c-.47,2.2.51,5.4,1.89,6.2a6.45,6.45,0,0,1,.27-.85.61.61,0,0,0-.1-.7,5.81,5.81,0,1,1,9.54.08c-.07.11-.16.26-.13.37C36.47,12.26,36.61,12.63,36.74,13Zm-5,2.14a6.91,6.91,0,0,0,3.2-.78c.81-.44.74-.25.6-1.18a3.86,3.86,0,0,0-4-3.16,3.91,3.91,0,0,0-3.64,3.55.56.56,0,0,0,.33.61A7.28,7.28,0,0,0,31.74,15.16Zm0,23.52a6.56,6.56,0,0,0,3.22-.76c.85-.45.77-.26.62-1.21a3.85,3.85,0,0,0-4-3.13A3.9,3.9,0,0,0,27.9,37.1a.6.6,0,0,0,.34.65A7.11,7.11,0,0,0,31.7,38.68Zm.05-29.81a2.68,2.68,0,1,0-2.67-2.68A2.68,2.68,0,0,0,31.75,8.87Zm0,23.53a2.68,2.68,0,1,0-2.67-2.68A2.68,2.68,0,0,0,31.75,32.4Zm-24-15.19c0,.59,0,1.16,0,1.73a2.69,2.69,0,0,0,2.48,2.47,2.66,2.66,0,0,0,2.84-2.1,15.92,15.92,0,0,0,.12-2.1Zm0-1.22h5.4c0-.43,0-.83,0-1.23a.69.69,0,0,0-.69-.67c-1.56-.09-3.15.2-4.7-.22Zm27.89-5.36a4.35,4.35,0,0,0-.11-5A3.87,3.87,0,0,1,34,9.32ZM29.5,9.32a3.93,3.93,0,0,1-1.56-3.75,4.53,4.53,0,0,0-.1,5.06ZM28,29.1a4.42,4.42,0,0,0-.09,5l1.64-1.29A3.94,3.94,0,0,1,28,29.1ZM9.65,22.55a.81.81,0,0,0,.43.89.77.77,0,0,0,.88-.07.8.8,0,0,0,.32-.82Z"/><path class="cls-1" d="M16,14.62c.2.14.41.2.51.35.47.7.94,1.41,1.37,2.14a.57.57,0,0,1-.25.85.62.62,0,0,1-.8-.35c-.4-.65-.84-1.27-1.22-1.93a1,1,0,0,1-.08-.67C15.6,14.86,15.84,14.76,16,14.62Z"/></g></g></svg>