<svg xmlns="http://www.w3.org/2000/svg" viewBox="0 0 40.34 40.35"><defs><style>.cls-1{fill:#fff;}</style></defs><g id="Layer_2" data-name="Layer 2"><g id="Layer_1-2" data-name="Layer 1"><path class="cls-1" d="M12.13,22.74a.77.77,0,0,1-.34-.07.91.91,0,0,1-.5-1c.24-1.17.5-2.36.75-3.51l.29-1.29.29-1.34c.3-1.4.61-2.84.94-4.25a1.89,1.89,0,0,1,.32-.72.84.84,0,0,1,.69-.35.66.66,0,0,1,.28.05c.39.14.58.5.57,1.06l-.17.78c-.14.69-.3,1.44-.46,2.18l-.3,1.35c-.42,2-.86,4-1.31,6a2.22,2.22,0,0,1-.36.81A.83.83,0,0,1,12.13,22.74Z"/><path class="cls-1" d="M7.4,20.75a.93.93,0,0,1-.4-.09,3,3,0,0,1-.61-.47l-3.2-3.14L3.13,17a1.37,1.37,0,0,1-.51-.92,1.4,1.4,0,0,1,.49-.91l.3-.29c1-1,2-2,3.08-3a1.89,1.89,0,0,1,.74-.44.59.59,0,0,1,.23,0,.78.78,0,0,1,.67.37.84.84,0,0,1,0,1,5.78,5.78,0,0,1-.59.65c-.09.09-.19.18-.28.28L5.89,15.11,5,16l1,1,1.64,1.72.1.11a2.66,2.66,0,0,1,.36.4,1,1,0,0,1,0,1.13A.88.88,0,0,1,7.4,20.75Z"/><path class="cls-1" d="M18.87,20.75a.76.76,0,0,1-.68-.41.94.94,0,0,1,.14-1.12c.53-.55,1.08-1.09,1.62-1.62l.58-.57.33-.3.16-.14.45-.41L21,15.74l-.76-.81c-.57-.6-1.11-1.17-1.69-1.72a1.4,1.4,0,0,1-.51-1,.81.81,0,0,1,.24-.6.76.76,0,0,1,.56-.22,1.5,1.5,0,0,1,1,.49C21,13,22.12,14.05,23.24,15.16a1.4,1.4,0,0,1,.49.91,1.32,1.32,0,0,1-.48.89l-.17.17c-1,1-2.14,2.12-3.24,3.16a1.73,1.73,0,0,1-.72.42A1.18,1.18,0,0,1,18.87,20.75Z"/><path class="cls-1" d="M39,6.91H1.26V31c0,1.3,0,1.3,1.34,1.3H17.25a1.58,1.58,0,0,1,.62,0,4.36,4.36,0,0,1,.72.58,7.38,7.38,0,0,1-.73.65c-.11.08-.31,0-.47,0H2.27C.65,33.56,0,32.9,0,31.25v-29C0,.69.68,0,2.24,0H38.07c1.58,0,2.27.68,2.27,2.24V31.31c0,1.19-.53,2-1.51,2.17a1.15,1.15,0,0,1-1-.38c-.22-.41.12-.65.55-.84a1.18,1.18,0,0,0,.63-.81c0-8.08,0-16.17,0-24.26A2.2,2.2,0,0,0,39,6.91Zm.07-1.34c0-1.06,0-2.08,0-3.1s0-1.21-1.19-1.21H11.74c-3.17,0-6.35,0-9.52,0-.49,0-.94,0-1,.66,0,1.2,0,2.4,0,3.65Z"/><path class="cls-1" d="M26,31.78V27.42c0-2.58,0-5.15,0-7.72a2.21,2.21,0,0,1,2.76-2.37,2.3,2.3,0,0,1,1.64,2.33c0,1.75,0,3.51,0,5.27v.86c1.3.37,2.57.71,3.81,1.1a3.21,3.21,0,0,1,2.44,3.35c0,2.47,0,4.93,0,7.4A2.39,2.39,0,0,1,34,40.34c-1.76,0-3.52,0-5.28,0a4,4,0,0,1-3.24-1.49c-1.52-1.82-3-3.65-4.49-5.49a3.63,3.63,0,0,1-.5-.79,2.2,2.2,0,0,1,.4-2.68,2.1,2.1,0,0,1,2.69-.12C24.36,30.35,25.09,31,26,31.78Zm1.26-5.39h0c0,2.16,0,4.31,0,6.46a1.22,1.22,0,0,1-.4.9c-.16.11-.62-.1-.87-.28-.5-.38-.95-.83-1.43-1.23a16.06,16.06,0,0,0-1.78-1.42,1,1,0,0,0-1,0,1.52,1.52,0,0,0-.24,1,1.31,1.31,0,0,0,.38.67c1.48,1.84,3,3.68,4.47,5.5a2.72,2.72,0,0,0,2.27,1c1.78,0,3.57,0,5.35,0,1,0,1.38-.33,1.38-1.36q0-3.78,0-7.56a1.86,1.86,0,0,0-1.43-2c-1.15-.36-2.32-.67-3.48-1s-1.33-.56-1.33-1.69c0-1.92,0-3.83,0-5.75,0-.74-.43-1.24-1-1.2-.71.06-.86.59-.9,1.18,0,.13,0,.26,0,.39Q27.26,23.24,27.26,26.39Z"/><rect class="cls-1" x="3.64" y="29.01" width="4.51" height="1.31" rx="0.66"/><circle class="cls-1" cx="3.71" cy="3.47" r="0.76"/><circle class="cls-1" cx="6.36" cy="3.47" r="0.76"/><circle class="cls-1" cx="9" cy="3.47" r="0.76"/><rect class="cls-1" x="13.68" y="2.78" width="22.66" height="1.31" rx="0.66"/><rect class="cls-1" x="3.64" y="26.3" width="9.45" height="1.31" rx="0.66"/></g></g></svg>