<svg xmlns="http://www.w3.org/2000/svg" viewBox="0 0 35.37 35.33"><defs><style>.cls-1{fill:#fff;}</style></defs><g id="Layer_2" data-name="Layer 2"><g id="Layer_1-2" data-name="Layer 1"><path class="cls-1" d="M32.53,2.55H28a.52.52,0,1,0,0,1h4.52a.52.52,0,0,0,0-1Z"/><path class="cls-1" d="M25.44,3.59H26a.52.52,0,0,0,0-1h-.55a.52.52,0,0,0,0,1Z"/><path class="cls-1" d="M25.44,6h7.09a.52.52,0,1,0,0-1H25.44a.52.52,0,0,0,0,1Z"/><path class="cls-1" d="M27.32,30.66a9.45,9.45,0,0,0-1.95-5.74l.09-1.77a2.1,2.1,0,0,0-2.1-2.22H17.69a1,1,0,0,1-.42-.81V18.67a6,6,0,0,0,1.95-2h1a2.1,2.1,0,0,0,2.1-2.1V10.71a1.65,1.65,0,0,0-.94-1.5V6.49a2.24,2.24,0,0,0-2.24-2.24h-.06A.06.06,0,0,1,19,4.19a2.25,2.25,0,0,0-2.24-2.25H11.29A5,5,0,0,0,6.35,6.88V9.21a1.65,1.65,0,0,0-.94,1.5v2a1.67,1.67,0,0,0,1.67,1.67h.67a5.83,5.83,0,0,0,1.93,3.73,8.41,8.41,0,0,0,.78.59v1.45a1,1,0,0,1-.42.81H4.37a2.1,2.1,0,0,0-2.1,2.22l.09,1.77A9.51,9.51,0,0,0,.41,30.66v1.95A1.66,1.66,0,0,0,0,33.69a1.64,1.64,0,0,0,1.63,1.64H26.1a1.64,1.64,0,0,0,1.63-1.64,1.61,1.61,0,0,0-.41-1.08Zm-1,0v1.41H25l.29-5.39a8.38,8.38,0,0,1,1,4Zm-5-20.2a.66.66,0,0,1,.05.25v2a.64.64,0,0,1-.64.63H20v-2l.32-.11A1.59,1.59,0,0,0,21.24,10.46Zm-3.46,6h-1.3a.38.38,0,0,1,0-.76h1.3a.38.38,0,0,1,0,.76Zm2.44-.81H19.7a7.21,7.21,0,0,0,.3-1.3h.65a1.7,1.7,0,0,0,.64-.13v.36A1.07,1.07,0,0,1,20.22,15.65ZM7.39,6.88A3.91,3.91,0,0,1,11.29,3h5.49A1.21,1.21,0,0,1,18,4.19a1.11,1.11,0,0,0,1.1,1.1h.06a1.21,1.21,0,0,1,1.21,1.2V9.8a.51.51,0,0,1-.33.47l-1.09.38a.07.07,0,0,1-.09-.07V8.52a2.4,2.4,0,0,0-3.37-2.18,5.49,5.49,0,0,1-3.21,0A2.41,2.41,0,0,0,8.89,8.52v2.06a.07.07,0,0,1-.09.07l-1.09-.38a.5.5,0,0,1-.32-.47V6.88Zm-.95,5.8v-2a.51.51,0,0,1,.06-.25,1.54,1.54,0,0,0,.87.79l.32.11v2H7.08A.64.64,0,0,1,6.44,12.68Zm2.3,1.07c0-.68,0-1.41,0-2.07h.1a1.11,1.11,0,0,0,1.1-1.11V8.52c0-.84.75-1.6,2-1.19a6.45,6.45,0,0,0,3.84,0c1.2-.39,2,.3,2,1.19v2.06a1.1,1.1,0,0,0,1.2,1.1v2.11a5,5,0,0,1-.21,1.3,1.44,1.44,0,0,0-1-.43h-1.3a1.42,1.42,0,1,0,0,2.84h.65a5.31,5.31,0,0,1-3.24,1.15,5.07,5.07,0,0,1-5.15-4.9Zm2.76,6.37v-.91a6.41,6.41,0,0,0,2.39.48h0a6.25,6.25,0,0,0,2.33-.47v.9a2.06,2.06,0,0,0,.17.81H11.33a2.06,2.06,0,0,0,.17-.81Zm-9,6.55.08,1.51a.52.52,0,0,0,1-.05l-.28-5A1.08,1.08,0,0,1,4.37,22h19a1.08,1.08,0,0,1,1.07,1.13l-.49,9H15.82a3.15,3.15,0,0,1,.77-1.6l0,0a3.68,3.68,0,0,0-.93-5.65.79.79,0,0,0-1.18.69v2.35a.19.19,0,0,1-.2.19h-.87a.19.19,0,0,1-.2-.19V25.48a.79.79,0,0,0-1.18-.69,3.69,3.69,0,0,0-.93,5.65l0,0a3.08,3.08,0,0,1,.77,1.6H3.79l-.08-1.53A.52.52,0,0,0,3.16,30a.53.53,0,0,0-.49.55l.08,1.47H1.45V30.66a8.38,8.38,0,0,1,1-4ZM13,32.06a4.27,4.27,0,0,0-1.05-2.3h0a2.64,2.64,0,0,1,.3-3.81v1.89a1.23,1.23,0,0,0,1.23,1.23h.87a1.24,1.24,0,0,0,1.24-1.23V25.94a2.65,2.65,0,0,1,.3,3.81h0a4.27,4.27,0,0,0-1.05,2.3ZM26.1,34.29H1.63a.6.6,0,0,1,0-1.19H26.1a.6.6,0,1,1,0,1.19Z"/><path class="cls-1" d="M34.85,3.55A.52.52,0,0,0,35.37,3V2a2,2,0,0,0-2-2H24.63a2,2,0,0,0-2,2V6.38a2,2,0,0,0,2,2,.36.36,0,0,1,.36.36v2.69a.85.85,0,0,0,1.59.44l2-3.32a.39.39,0,0,1,.31-.17h4.46a2,2,0,0,0,2-2V5.45a.52.52,0,0,0-.52-.52.52.52,0,0,0-.52.52v.93a1,1,0,0,1-1,1H28.88a1.43,1.43,0,0,0-1.2.68L26,10.81v-2a1.4,1.4,0,0,0-1.4-1.4,1,1,0,0,1-1-1V2a1,1,0,0,1,1-1h8.71a1,1,0,0,1,1,1V3a.53.53,0,0,0,.52.52Z"/></g></g></svg>