<svg xmlns="http://www.w3.org/2000/svg" viewBox="0 0 41.05 33.11"><defs><style>.cls-1{fill:#fff;}</style></defs><g id="Layer_2" data-name="Layer 2"><g id="Layer_1-2" data-name="Layer 1"><path class="cls-1" d="M38.74,0H2.32A2.32,2.32,0,0,0,0,2.32V30.79a2.32,2.32,0,0,0,2.32,2.32H38.74a2.32,2.32,0,0,0,2.31-2.32V2.32A2.32,2.32,0,0,0,38.74,0Zm1,30.79a1,1,0,0,1-1,1H2.32a1,1,0,0,1-1-1v-3H39.73Zm0-4.3H1.32V5.3H39.73ZM39.73,4H1.32V2.32a1,1,0,0,1,1-1H38.74a1,1,0,0,1,1,1Z"/><path class="cls-1" d="M2.65,3.31h.66A.66.66,0,0,0,3.31,2H2.65a.66.66,0,1,0,0,1.32Z"/><path class="cls-1" d="M5.3,3.31H6A.66.66,0,1,0,6,2H5.3a.66.66,0,1,0,0,1.32Z"/><path class="cls-1" d="M8,3.31h.66A.66.66,0,1,0,8.61,2H8A.66.66,0,1,0,8,3.31Z"/><path class="cls-1" d="M20.53,9.27a7.29,7.29,0,1,0,7.28,7.28A7.28,7.28,0,0,0,20.53,9.27Zm0,13.24a6,6,0,1,1,6-6A6,6,0,0,1,20.53,22.51Z"/><path class="cls-1" d="M23.54,16l-4-2.65a.67.67,0,0,0-1,.55v5.3a.66.66,0,0,0,.66.66.62.62,0,0,0,.37-.11l4-2.65a.65.65,0,0,0,.19-.91A.69.69,0,0,0,23.54,16Zm-3.68,2V15.14L22,16.55Z"/><path class="cls-1" d="M35.76,29.13H9.27a.66.66,0,0,0-1.32,0H5.3a.67.67,0,1,0,0,1.33H8a.66.66,0,0,0,1.32,0H35.76a.67.67,0,0,0,0-1.33Z"/></g></g></svg>